# xmcd CD database file
#
# Track frame offsets:
#	150
#	15732
#	30180
#	43741
#	56964
#	71174
#	87280
#	100525
#	112424
#	125588
#	143281
#	155339
#	168825
#	178559
#	189855
#	205855
#	219770
#	234160
#
# Disc length: 3377 seconds
#
# Revision: 0
# Processed by: cddbd v1.5.1PL0 Copyright (c) Steve Scherf et al.
# Submitted via: CDex 1.51
#
DISCID=e60d2f12
DTITLE=Richard Clayderman - 夜のサウンド
DYEAR=1900
DGENRE=New Age
TTITLE0=夜への旅立ち-Richard Clayderman
TTITLE1=ムーン・リバー
TTITLE2=イパネバの娘
TTITLE3=星のセレナーデ
TTITLE4=夜空のトランペット
TTITLE5=ビギン・ザ・ビギン
TTITLE6=ミッドナイト・ブルー
TTITLE7=アルゼンチンよ泣かないで
TTITLE8=テイスト・オブ・ハニー
TTITLE9=アルハンブラの思い出
TTITLE10=愛のよろこび
TTITLE11=ソラメンテ・ウナ・ベス
TTITLE12=スパニッシュ・フリー
TTITLE13=君だけを愛して
TTITLE14=恋のアランフェス
TTITLE15=アモール・アモール
TTITLE16=フィーリング
TTITLE17=ジェルソミーナ
EXTD=
EXTT0=
EXTT1=
EXTT2=
EXTT3=
EXTT4=
EXTT5=
EXTT6=
EXTT7=
EXTT8=
EXTT9=
EXTT10=
EXTT11=
EXTT12=
EXTT13=
EXTT14=
EXTT15=
EXTT16=
EXTT17=
PLAYORDER=
